<svg width="124" height="124" viewBox="0 0 124 124" fill="none" xmlns="http://www.w3.org/2000/svg">
<circle cx="62" cy="62" r="59.5" stroke="#16A424" stroke-width="5"/>
<path d="M64.987 75.2421C64.997 75.229 65.0068 75.2147 65.0166 75.2015H59.465C59.4749 75.2147 59.4847 75.229 59.4945 75.2421C55.0501 76.5279 51.7722 80.8549 51.7722 85.9815C51.7722 91.6079 56.0892 102 62.2408 102C68.3926 102 72.7099 91.6079 72.7099 85.9815C72.7099 80.8549 69.4319 76.5278 64.987 75.2421Z" fill="#404040"/>
<path d="M55.3014 51.7677L54.1121 51.7633C54.4865 51.8422 54.8836 51.8342 55.3014 51.7677Z" fill="#404040"/>
<path d="M68.8624 51.7071C69.1867 51.7781 69.4997 51.8206 69.7998 51.8206C70.3629 51.8206 70.8821 51.6733 71.3529 51.2969C72.2916 50.5456 72.7101 49.1178 72.7101 46.667C72.7101 43.012 71.7726 39.6623 70.2215 37.0734C72.718 36.1525 75.2812 35.8921 77.9632 36.2801C78.3201 36.3316 78.6734 36.1695 78.8934 35.8529C79.1134 35.5366 79.1665 35.1144 79.0334 34.7431C77.6904 31.0008 77.4935 27.2976 78.432 23.4213C78.5774 22.8201 78.258 22.201 77.7182 22.0385C77.1805 21.8788 76.6228 22.2322 76.4775 22.8338C75.5772 26.5541 75.625 30.2624 76.6167 33.8822C73.9798 33.7385 71.397 34.1848 68.8934 35.2164C67.0835 33.0998 64.7651 31.8269 62.2409 31.8269C59.7171 31.8269 57.399 33.0995 55.5893 35.2159C53.0854 34.1838 50.5021 33.7377 47.8651 33.8822C48.8569 30.2628 48.9046 26.5546 48.0043 22.8338C47.8582 22.2322 47.3006 21.8783 46.7635 22.0385C46.224 22.201 45.9044 22.8196 46.0497 23.4213C46.9879 27.298 46.791 31.0013 45.4485 34.7431C45.3154 35.1143 45.3686 35.5366 45.5885 35.8529C45.8088 36.1695 46.1646 36.3325 46.5188 36.2801C49.2011 35.8918 51.7645 36.1523 54.261 37.0732C52.7098 39.6622 51.7723 43.012 51.7723 46.667C51.7723 49.1178 52.1908 50.5455 53.1293 51.2969C53.4366 51.5429 53.7648 51.6901 54.1123 51.7632L55.3016 51.7675C55.4062 51.7509 55.512 51.731 55.6191 51.7075C55.6079 51.7278 55.5972 51.7483 55.5862 51.7686L68.9221 51.8173C68.9022 51.7806 68.8826 51.7436 68.8624 51.7071Z" fill="#404040"/>
<path d="M94.7553 68.4546L88.6944 66.5544L82.2351 58.8315C81.9946 58.5444 81.6276 58.4144 81.273 58.4932L69.4234 61.1061C69.616 60.0144 69.7566 59.0368 69.8433 58.2545L79.8468 52.1832L88.6043 50.668C88.9691 50.605 89.2727 50.3353 89.3957 49.9646L92.5134 40.5768C92.6995 40.0166 92.4233 39.4021 91.896 39.2048C91.3669 39.0074 90.7908 39.3011 90.605 39.8609L87.6866 48.6477L79.3411 50.0915C79.2216 50.1122 79.1068 50.155 79.0017 50.2189L69.8761 55.757C69.741 54.7251 69.4102 53.756 68.9222 52.89L55.5862 52.8434C55.0837 53.7212 54.7433 54.7064 54.6059 55.7569L45.4803 50.2188C45.3753 50.1549 45.2604 50.112 45.141 50.0914L36.7952 48.6477L33.8768 39.8609C33.691 39.3011 33.1124 39.0074 32.5856 39.2048C32.0584 39.4021 31.7821 40.0166 31.9682 40.5768L35.0863 49.9646C35.2094 50.3352 35.513 50.6049 35.8778 50.668L44.6349 52.1832L54.6383 58.2545C54.7248 59.0368 54.8654 60.0144 55.0581 61.1061L43.2086 58.4931C42.8543 58.4135 42.4875 58.5443 42.2465 58.8313L35.7876 66.5541L29.7261 68.4545C29.1899 68.6228 28.8834 69.2209 29.0416 69.7903C29.1718 70.2587 29.575 70.5619 30.0119 70.5619C30.1067 70.5619 30.203 70.5475 30.2986 70.5177L36.6381 68.5302C36.8197 68.4733 36.9823 68.3636 37.1084 68.2134L43.3705 60.7257L55.5098 63.4024C55.7839 64.6684 56.1143 65.9997 56.4991 67.3018L48.026 68.8687C47.65 68.9382 47.3431 69.2263 47.2315 69.6136L43.5031 82.5711L36.0566 87.1082C35.5713 87.4038 35.4037 88.0611 35.6818 88.5763C35.8687 88.923 36.2097 89.1173 36.5607 89.1173C36.7316 89.1173 36.9045 89.0714 37.0631 88.9746L44.8572 84.2254C45.0803 84.0893 45.2463 83.8683 45.3218 83.6069L48.9855 70.8746L57.1663 69.3619C57.819 71.1955 58.5875 72.8533 59.4648 74.0323H65.0165C65.8939 72.8532 66.6624 71.1956 67.3151 69.3619L75.496 70.8746L79.1595 83.6069C79.2352 83.8683 79.401 84.0893 79.6241 84.2254L87.4187 88.9746C87.5774 89.0713 87.7504 89.1173 87.9211 89.1173C88.272 89.1173 88.6132 88.9231 88.8 88.5763C89.0781 88.0611 88.9102 87.4039 88.4252 87.1083L80.9782 82.5711L77.2496 69.6136C77.1381 69.2264 76.8312 68.9384 76.4553 68.8687L67.9825 67.3019C68.3671 65.9999 68.6976 64.6685 68.9718 63.4025L81.1111 60.7258L87.3736 68.2135C87.4995 68.3637 87.6622 68.4736 87.844 68.5304L94.1829 70.5179C94.2786 70.5476 94.3749 70.5621 94.4696 70.5621C94.9067 70.5621 95.3098 70.2589 95.4399 69.7905C95.598 69.221 95.2917 68.6228 94.7553 68.4546Z" fill="#404040"/>
<path d="M18.5 19.5L94.5 113" stroke="#16A424" stroke-width="5"/>
</svg>
