<svg width="124" height="124" viewBox="0 0 124 124" fill="none" xmlns="http://www.w3.org/2000/svg">
<circle cx="62" cy="62" r="59.5" stroke="#16A424" stroke-width="5"/>
<path d="M75.7502 80.3303C74.3421 79.2506 72.9702 78.0623 71.6623 76.7572C69.5975 74.6896 67.9278 72.7417 66.5754 70.8354H57.203C55.8533 72.7389 54.1836 74.684 52.1188 76.7461C50.8081 78.0568 49.4306 79.245 48.0198 80.3303C47.4159 80.795 46.8037 81.2375 46.1859 81.6549C47.6135 87.0702 50.3601 90.1229 50.669 90.4485C53.3572 93.8741 56.0871 96.0475 58.8114 96.9658C60.1332 100.083 60.7733 101.198 61.1656 101.624C61.3632 101.864 61.6582 102 61.9671 102C61.9727 102 61.9782 101.997 61.9894 102C62.2982 102 62.5932 101.861 62.7908 101.624C63.186 101.193 63.8371 100.063 65.184 96.8768C67.8415 95.9111 70.4991 93.7684 73.1177 90.4207C73.1205 90.4151 73.1205 90.4096 73.1261 90.404C73.1316 90.3984 73.1372 90.3956 73.14 90.3901C73.5824 89.7862 76.8912 85.164 77.9291 81.8887C77.2001 81.4017 76.471 80.8841 75.7502 80.3303ZM62.6711 97.425C62.4346 97.9565 62.1925 98.4852 61.9838 98.9193C61.7751 98.4908 61.5385 97.9676 61.302 97.4417C61.2519 97.3276 61.2074 97.2385 61.1545 97.1216H62.8075C62.763 97.2302 62.7184 97.3164 62.6711 97.425ZM71.7708 88.7315H51.9435C51.2339 87.8772 49.3388 85.3338 48.2452 81.3683L75.9812 81.2681C75.3384 83.2912 73.2902 86.5916 71.7708 88.7315Z" fill="#404040"/>
<path d="M68.1504 32.0964L71.3701 23.4002C71.5704 22.8604 71.2949 22.2621 70.7523 22.0617C70.2069 21.8697 69.6113 22.1396 69.4138 22.6795L66.144 31.5093C64.8277 31.2059 63.467 31.0306 62.0644 31.0306C60.6508 31.0306 59.2816 31.2032 57.9626 31.5009L54.6984 22.6795C54.5008 22.1396 53.8997 21.8697 53.3571 22.0617C52.8172 22.2621 52.5417 22.8604 52.7421 23.4002L55.9534 32.077C49.1133 34.4646 44.1683 40.7481 43.7648 48.3841L44.2017 48.1893C44.6414 47.9889 45.0922 47.783 45.6182 47.6021C46.0217 47.4658 55.4358 44.324 60.8929 44.324C61.2825 44.324 61.6303 44.4937 61.9336 44.7442C62.2091 44.4965 62.5319 44.3351 62.8937 44.3351C68.3535 44.3351 77.7677 47.4741 78.1628 47.6077C78.6916 47.7886 79.1452 47.9973 79.5821 48.1976C79.7991 48.2978 80.0134 48.398 80.2332 48.4898C80.2778 48.5093 80.3195 48.5343 80.3668 48.5538C80.0273 40.9513 75.0072 34.5369 68.1504 32.0964ZM57.3086 40.7314C56.3792 40.7314 55.6251 39.9773 55.6251 39.0478C55.6251 38.1184 56.3792 37.3642 57.3086 37.3642C58.2381 37.3642 58.9922 38.1184 58.9922 39.0478C58.9895 39.9773 58.2381 40.7314 57.3086 40.7314ZM66.3917 40.7314C65.4622 40.7314 64.7081 39.9773 64.7081 39.0478C64.7081 38.1184 65.4622 37.3642 66.3917 37.3642C67.3211 37.3642 68.0752 38.1184 68.0752 39.0478C68.0725 39.9773 67.3211 40.7314 66.3917 40.7314Z" fill="#404040"/>
<path d="M62.4319 61.3434H61.3856C61.5525 60.5142 61.7529 59.4762 61.9532 58.313C62.1369 59.5792 62.3094 60.6366 62.4319 61.3434Z" fill="#404040"/>
<path d="M90.4797 57.9488C90.4769 57.9488 90.4769 57.9488 90.4797 57.9488C87.1403 54.6095 83.4225 52.0743 79.432 50.4158C79.1843 50.3128 78.9478 50.2043 78.7057 50.093C78.3272 49.9177 77.9404 49.7368 77.4896 49.581C77.4061 49.5531 68.465 46.5728 63.2779 46.4253C62.7297 48.2703 63.7009 56.5352 64.6443 61.9004C64.6471 61.9198 64.6498 61.9421 64.6526 61.9588C65.6795 66.325 68.3009 70.4407 73.1401 75.2828C77.4284 79.571 82.3929 82.646 87.1181 83.9428C91.6456 85.1867 95.3635 84.6329 97.5952 82.4011C99.8326 80.1638 100.381 76.4432 99.1397 71.9212C97.8457 67.1988 94.7679 62.2343 90.4797 57.9488ZM78.9339 54.7236C78.728 54.9684 78.4302 55.0965 78.1352 55.0965C77.8987 55.0965 77.6594 55.0158 77.4646 54.8516C77.2113 54.6373 76.947 54.4369 76.677 54.2421C76.2068 53.9082 76.0982 53.257 76.4322 52.7867C76.7689 52.3164 77.4173 52.2079 77.8876 52.5419C78.202 52.7673 78.5109 53.0066 78.8059 53.2542C79.2483 53.6244 79.304 54.2839 78.9339 54.7236ZM85.4623 62.1119C85.287 62.2259 85.0866 62.2816 84.8918 62.2816C84.5523 62.2816 84.2184 62.1146 84.018 61.8085C82.4625 59.4237 81.8419 58.6306 80.1082 57.1975C79.6658 56.8301 79.6018 56.1734 79.9691 55.7281C80.3364 55.2829 80.9904 55.2217 81.4384 55.589C83.3557 57.178 84.1266 58.152 85.7684 60.6676C86.0773 61.149 85.9409 61.7974 85.4623 62.1119Z" fill="#404040"/>
<path d="M60.6732 46.4111C61.3911 47.8693 60.4923 55.4274 59.1482 61.8584C59.1426 61.889 59.1371 61.9168 59.1343 61.9446C58.1074 66.3164 55.4861 70.4321 50.6468 75.2686C46.3585 79.5597 41.394 82.6346 36.6689 83.9342C32.1468 85.1725 28.4263 84.6271 26.1917 82.3898C23.9571 80.1552 23.4089 76.4346 24.65 71.9126C25.9468 67.1874 29.0246 62.2229 33.3128 57.9319C36.6466 54.6009 40.3616 52.0658 44.3577 50.3989C44.5998 50.2987 44.8363 50.1902 45.0757 50.0816C45.4569 49.9063 45.8465 49.7254 46.2917 49.5724C46.3836 49.5445 55.5139 46.4974 60.6732 46.4111Z" fill="#404040"/>
<path d="M18.5 19.5L94.5 113" stroke="#16A424" stroke-width="5"/>
</svg>
