<svg width="124" height="124" viewBox="0 0 124 124" fill="none" xmlns="http://www.w3.org/2000/svg">
<circle cx="62" cy="62" r="59.5" stroke="#16A424" stroke-width="5"/>
<path d="M99.3273 42.6693C96.6237 42.8942 93.9275 43.0763 91.2145 43.2119C87.3588 38.3119 80.5374 37 76.8619 37C70.0721 37 62.4387 40.6588 57.1094 50.9289C49.3571 48.924 41.4189 45.9007 36.151 40.1682C35.8072 42.3646 35.6325 44.5851 35.6325 46.8224C35.6325 56.7005 38.5685 64.5829 46.0625 70.6907C39.9658 75.2934 32.5665 77.0439 25 77.6812C34.5585 83.8783 46.2112 87 57.7635 87C87.1711 87 94.0631 61.0598 94.0631 52.1015C94.0631 51.3619 94.0204 50.6558 93.9405 49.9813C95.5552 47.4226 97.3224 44.966 99.3273 42.6693ZM83.2336 50.6837C81.5798 50.6837 80.2419 49.3421 80.2419 47.692C80.2419 46.0382 81.5817 44.7003 83.2336 44.7003C84.8855 44.7003 86.2253 46.0401 86.2253 47.692C86.2253 49.3421 84.8874 50.6837 83.2336 50.6837Z" fill="#404040"/>
<path d="M18.5 19.5L94.5 113" stroke="#16A424" stroke-width="5"/>
</svg>
