<svg width="124" height="124" viewBox="0 0 124 124" fill="none" xmlns="http://www.w3.org/2000/svg">
<circle cx="62" cy="62" r="59.5" stroke="#16A424" stroke-width="5"/>
<path d="M41.4463 61.5824H30.2062L24.838 56.2092C24.6324 56.0035 24.365 55.8955 24.077 55.8955C23.7891 55.8955 23.5166 56.0086 23.316 56.2092C23.0949 56.4303 22.9818 56.7233 23.0024 57.037C23.0178 57.3044 23.1412 57.5563 23.3315 57.7517L28.9978 63.4181C29.2035 63.6237 29.4709 63.7317 29.7588 63.7317H41.071C40.8293 65.4182 40.7059 67.1459 40.7059 68.8993C40.7059 70.7658 40.8447 72.6066 41.1224 74.4011H29.8102C29.5274 74.4011 29.2498 74.5142 29.0492 74.7147L23.3623 80.4068C23.1669 80.6022 23.0538 80.8593 23.0487 81.1318C23.0384 81.4197 23.1464 81.7025 23.3417 81.9082C23.5474 82.1242 23.8251 82.2424 24.1233 82.2424C24.4113 82.2424 24.6786 82.1293 24.8843 81.9288L30.2524 76.5607H41.5132C42.3667 80.4736 43.8733 84.1038 45.966 87.2301H35.0447C34.7567 87.2301 34.4842 87.3432 34.2837 87.5437L28.6019 93.2306C28.1803 93.6522 28.1803 94.331 28.6019 94.7526C28.8076 94.9531 29.0749 95.0663 29.3629 95.0663C29.6508 95.0663 29.9182 94.9531 30.1239 94.7526L35.492 89.3845H47.5703C51.473 94.1253 56.4966 96.8042 61.8442 96.9945V60.5695H41.6726C41.5954 60.9037 41.5183 61.2431 41.4463 61.5824Z" fill="#404040"/>
<path d="M77.8045 48.9748C75.6963 46.2702 73.2334 44.1877 70.5596 42.8046L74.8479 28.3867C74.9302 28.1091 74.8994 27.8211 74.7605 27.564C74.6217 27.3121 74.3954 27.127 74.1229 27.0447C73.5522 26.875 72.9557 27.2041 72.786 27.7697L68.5748 41.915C66.6158 41.1797 64.5642 40.7992 62.4663 40.7992C60.3684 40.7992 58.3168 41.1797 56.3526 41.9201L52.1517 27.7748C51.982 27.2041 51.3804 26.8801 50.8148 27.0498C50.5371 27.1321 50.3109 27.3172 50.1772 27.5692C50.0383 27.8211 50.0075 28.1142 50.0898 28.3867L54.373 42.8097C51.6992 44.1929 49.2414 46.2753 47.1332 48.98C44.8142 51.9571 43.0762 55.4844 42.0016 59.3357H62.4714H82.9413C81.8615 55.4793 80.1235 51.952 77.8045 48.9748Z" fill="#404040"/>
<path d="M95.9247 74.7203C95.719 74.5146 95.4516 74.4066 95.1637 74.4066H83.8156C84.0881 72.6121 84.2321 70.7713 84.2321 68.9048C84.2321 67.1514 84.1087 65.4238 83.867 63.7372H95.2203C95.5082 63.7372 95.7807 63.6241 95.9813 63.4236L101.668 57.7367C102.09 57.315 102.085 56.6311 101.668 56.2147C101.462 56.009 101.195 55.901 100.907 55.901C100.619 55.901 100.347 56.0141 100.146 56.2147L94.7781 61.5828H83.4917C83.4197 61.2434 83.3477 60.9092 83.2654 60.575H63.0939V97.0001C68.4414 96.8098 73.465 94.1258 77.3677 89.3901H89.4819L94.85 94.7582C95.0557 94.9639 95.3231 95.0719 95.611 95.0719C95.899 95.0719 96.1664 94.9587 96.372 94.7582C96.7937 94.3366 96.7885 93.6527 96.372 93.2362L90.6851 87.5493C90.4795 87.3436 90.2121 87.2356 89.9241 87.2356H78.9565C81.0493 84.1042 82.5558 80.4741 83.4094 76.5662H94.7112L100.079 81.9344C100.285 82.1349 100.552 82.248 100.84 82.248C101.128 82.248 101.401 82.1349 101.601 81.9344C101.807 81.7287 101.915 81.4613 101.915 81.1734C101.915 80.8854 101.802 80.6129 101.601 80.4124L95.9247 74.7203Z" fill="#404040"/>
<path d="M18.5 19.5L94.5 113" stroke="#16A424" stroke-width="5"/>
</svg>
