<svg width="30" height="30" viewBox="0 0 30 30" fill="none" xmlns="http://www.w3.org/2000/svg">
<path d="M24.9159 18.4432C23.8982 17.4982 22.8078 17.6072 21.79 18.5886C21.0268 19.2792 20.2998 20.0061 19.6092 20.7694C19.1731 21.2419 18.7732 21.3873 18.1917 21.0238C14.2662 18.734 11.104 15.7172 8.9232 11.719C8.63242 11.1738 8.70512 10.774 9.14128 10.3741C9.90457 9.6472 10.6679 8.88391 11.3584 8.12062C12.2671 7.10291 12.3035 5.86711 11.4311 4.95843C10.0863 3.5409 8.66877 2.12336 7.25123 0.778524C6.26986 -0.202846 5.07041 -0.27554 4.05269 0.669483C2.59881 2.01432 0.963196 3.25012 0.163562 5.17652C-0.0545206 6.26693 -0.0545206 6.95752 0.163562 8.04793C1.25397 12.0825 3.14402 15.7172 5.761 18.9157C9.79553 23.8225 14.6297 27.5663 20.7723 29.42C21.2085 29.5654 21.681 29.6744 22.1172 29.8198C23.353 30.0379 23.8255 30.0742 24.7705 29.8198C26.6969 29.0202 27.9327 27.3846 29.2775 25.9307C30.2589 24.913 30.2226 23.8225 29.2775 22.7685C27.8964 21.2783 26.4425 19.8244 24.9159 18.4432Z" fill="#407E46"/>
</svg>
