<svg width="124" height="124" viewBox="0 0 124 124" fill="none" xmlns="http://www.w3.org/2000/svg">
<circle cx="62" cy="62" r="59.5" stroke="#16A424" stroke-width="5"/>
<path d="M84.46 72.2892H87.437L84.72 71.4912C84.72 71.4912 82.597 65.9582 81.663 65.0262C80.811 64.1732 75.087 67.3822 74.116 67.9382C74.067 64.2922 73.659 61.2502 72.97 58.7472C74.079 58.1422 77.753 56.1782 77.568 56.7282C77.375 57.3072 80.226 60.4992 80.226 60.4992H82.525L80.427 59.8832C80.427 59.8832 78.788 55.6152 78.072 54.8972C77.453 54.2792 73.517 56.4292 72.426 57.0432C70.838 52.7072 68.254 50.3022 65.178 49.3682C67.004 48.9372 68.235 48.1662 68.235 47.2772C68.235 46.4202 67.098 45.6672 65.381 45.2292C65.509 41.9592 66.357 31.3152 71.978 27.0012C74.447 25.1062 77.582 24.6662 81.296 25.6902L81.601 24.5832C77.525 23.4582 74.048 23.9642 71.279 26.0902C65.305 30.6752 64.378 41.3712 64.236 44.9992C63.516 44.8892 62.734 44.8262 61.914 44.8262C61.336 44.8262 60.779 44.8592 60.247 44.9152C60.095 41.2122 59.138 30.6412 53.208 26.0892C50.438 23.9632 46.965 23.4572 42.887 24.5832L43.194 25.6902C46.906 24.6682 50.04 25.1062 52.507 27.0002C58.047 31.2502 58.95 41.6612 59.098 45.0852C57.019 45.4872 55.588 46.3162 55.588 47.2772C55.588 48.1662 56.818 48.9372 58.649 49.3682C55.553 50.3072 52.958 52.7322 51.368 57.1162L51.499 56.7202C51.499 56.7202 46.275 53.4962 45.558 54.2142C44.839 54.9322 43.201 59.2002 43.201 59.2002L41.105 59.8162H43.403C43.403 59.8162 46.254 56.6252 46.06 56.0452C45.845 55.3992 50.988 58.2432 50.995 58.2472C50.264 60.6812 49.818 63.6562 49.722 67.2252C47.938 66.2382 43.514 63.9082 42.774 64.6482C41.842 65.5792 39.718 71.1122 39.718 71.1122L37 71.9112H39.979C39.979 71.9112 43.675 67.7732 43.424 67.0222C43.2 66.3512 47.846 68.8342 49.713 69.8542C49.759 72.1172 49.923 74.4082 50.21 76.6682C48.481 75.8192 46.534 75.0212 46.085 75.4712C45.236 76.3192 43.304 81.3542 43.304 81.3542L40.83 82.0822H43.542C43.542 82.0822 46.905 78.3152 46.677 77.6322C46.519 77.1552 48.829 78.2872 50.587 79.2052C51.124 82.4312 51.892 85.5122 52.836 88.2742C52.614 88.2552 52.442 88.2822 52.35 88.3752C51.631 89.0942 49.993 93.3622 49.993 93.3622L47.896 93.9772H50.195C50.195 93.9772 53.046 90.7862 52.853 90.2062C52.796 90.0392 53.106 90.1092 53.583 90.3012C55.769 95.7662 58.689 99.5092 61.911 99.5092C65.106 99.5092 68.001 95.8342 70.177 90.4492C70.415 90.3822 70.585 90.3602 70.546 90.4732C70.353 91.0532 73.204 94.2442 73.204 94.2442H75.503L73.405 93.6282C73.405 93.6282 71.766 89.3602 71.05 88.6422C71.015 88.6082 70.929 88.6202 70.874 88.6022C71.823 85.8932 72.606 82.8652 73.161 79.6822C74.876 78.7652 78.161 77.0672 77.974 77.6312C77.745 78.3152 81.111 82.0802 81.111 82.0802H83.822L81.347 81.3542C81.347 81.3542 79.415 76.3182 78.566 75.4702C78.039 74.9412 75.435 76.1382 73.556 77.1122C73.845 74.9482 74.023 72.7532 74.093 70.5772C75.048 70.0502 81.275 66.6252 81.017 67.3982C80.761 68.1522 84.46 72.2892 84.46 72.2892Z" fill="#404040"/>
<path d="M18.5 19.5L94.5 113" stroke="#16A424" stroke-width="5"/>
</svg>
