<svg width="30" height="45" viewBox="0 0 30 45" fill="none" xmlns="http://www.w3.org/2000/svg">
<path d="M15 0C6.76752 0 0 6.41971 0 15.5769C0 18.8448 0.769748 21.1181 2.19952 23.6359L13.9904 44.4051C14.0902 44.5854 14.2365 44.7357 14.414 44.8403C14.5916 44.945 14.7939 45.0002 15 45.0002C15.2061 45.0002 15.4084 44.945 15.586 44.8403C15.7635 44.7357 15.9098 44.5854 16.0096 44.4051L27.8005 23.6359C29.2303 21.118 30 18.8448 30 15.5769C30 6.41971 23.2325 0 15 0ZM15 8.07692C18.8235 8.07692 21.9231 11.1765 21.9231 15C21.9231 18.8234 18.8235 21.9231 15 21.9231C11.1765 21.9231 8.07692 18.8234 8.07692 15C8.07692 11.1765 11.1765 8.07692 15 8.07692Z" fill="#407E46"/>
</svg>
