<svg width="30" height="20" viewBox="0 0 30 20" fill="none" xmlns="http://www.w3.org/2000/svg">
<path d="M2.19512 0C1.76363 0 1.3676 0.129622 1.02896 0.342988L14.0168 11.3301C14.6113 11.8336 15.4126 11.8335 16.0061 11.3301L28.971 0.342988C28.6324 0.129622 28.2364 0 27.8049 0H2.19512ZM0.12578 1.47483C0.0474877 1.70092 0 1.94177 0 2.19512V16.8293C0 17.2701 0.132475 17.6751 0.354439 18.0183L9.64939 9.54652L0.12578 1.47483ZM29.8742 1.47483L20.3735 9.53506L29.6456 18.0183C29.8675 17.6751 30 17.2701 30 16.8293V2.19512C30 1.94177 29.9525 1.70092 29.8742 1.47483ZM19.253 10.4954L16.9436 12.4504C15.8266 13.3981 14.185 13.3967 13.0679 12.4504L10.7698 10.5069L1.54346 18.9215C1.74991 18.9855 1.96712 19.0244 2.19512 19.0244H27.8049C28.0329 19.0244 28.2501 18.9855 28.4565 18.9215L19.253 10.4954Z" fill="#407E46"/>
</svg>
