<svg width="124" height="124" viewBox="0 0 124 124" fill="none" xmlns="http://www.w3.org/2000/svg">
<circle cx="62" cy="62" r="59.5" stroke="#16A424" stroke-width="5"/>
<path d="M85.1142 50.8021C90.8147 54.5526 100.266 66.1005 101.762 70.5979C103.262 75.1008 97.8624 72.6973 97.8624 72.6973C77.0208 65.1988 68.0179 52.6 67.7164 52.3786C67.4203 52.1519 71.9178 70.75 72.2539 71.649C72.5927 72.5506 81.0275 87.2808 81.1022 87.5449C81.1742 87.8116 91.1855 97.4415 91.1855 97.4415L97.785 100.779C97.785 100.779 93.1355 99.5408 91.3349 98.6419C89.537 97.7429 80.0912 88.2971 80.0912 88.2971C80.0912 88.2971 70.4187 71.817 70.4187 71.3689C70.4187 70.9181 68.5034 65.1241 67.6017 61.2455C66.7028 57.3616 65.5797 53.707 65.5797 53.707C64.3953 56.8014 56.5794 59.3889 56.5794 59.3889L54.4454 70.1845L47.3577 88.4625L38.4721 97.2948L29.3091 101L37.9146 96.6706L46.4081 87.9557C47.4778 86.9447 53.381 69.8484 53.381 69.8484L54.9549 59.669C52.5354 60.0078 50.9616 58.0925 50.9616 58.0925L45.7865 68.2718L34.3134 79.6329L22 86.3818L33.8653 79.0141C33.8653 79.0141 44.6635 67.7117 44.8876 67.653C45.1116 67.597 49.6865 57.0655 49.6865 57.0655C49.6865 57.0655 48.0353 56.5747 47.4751 56.5747C46.9122 56.5747 46.9122 54.6647 47.0616 57.3616C47.211 60.0611 43.199 61.4109 43.199 61.4109C41.065 63.665 30.152 72.8867 30.152 72.8867C31.7259 72.66 41.289 61.6937 41.289 61.6937C39.6005 60.9601 39.3764 59.1062 39.3764 59.1062C37.8026 59.5543 36.5648 58.9381 36.5648 58.9381C37.3517 59.2769 39.0376 58.8261 39.0376 58.8261C38.1387 56.1238 39.6005 54.4406 39.6005 54.4406C36.9009 51.4023 36.114 38.4673 36.114 38.4673C36.114 40.3826 39.8246 53.8751 39.8246 53.8751C42.5241 52.1865 45.1116 53.8751 45.1116 53.8751L46.1253 51.8531C46.1253 51.8531 46.3494 50.9541 47.2483 48.1399C48.1473 45.3283 53.6585 42.5167 57.2597 41.8418C60.8582 41.1669 60.1806 40.2653 75.367 34.53C90.548 28.7948 92.0125 31.1583 97.1848 33.8578C102.357 36.5574 103.374 38.582 96.5126 39.8171C89.649 41.0549 64.5687 43.6424 64.5687 43.6424C73.2703 43.5303 79.4163 47.0542 85.1142 50.8021Z" fill="#404040"/>
<path d="M18.5 19.5L94.5 113" stroke="#16A424" stroke-width="5"/>
</svg>
