<svg width="124" height="124" viewBox="0 0 124 124" fill="none" xmlns="http://www.w3.org/2000/svg">
<circle cx="62" cy="62" r="59.5" stroke="#16A424" stroke-width="5"/>
<path d="M44.2803 84.5985C43.5052 84.5985 42.8408 85.2629 42.8408 86.038C42.8408 86.813 43.5052 87.4774 44.2803 87.4774H50.8132L49.2076 84.5985H44.2803Z" fill="#404040"/>
<path d="M47.436 91.6298C46.6609 91.6298 45.9966 92.2941 45.9966 93.0692C45.9966 93.8443 46.6609 94.5087 47.436 94.5087H54.8547L53.2491 91.6298H47.436Z" fill="#404040"/>
<path d="M80.1557 87.4221C80.9308 87.4221 81.5952 86.7577 81.5952 85.9827C81.5952 85.2076 80.9308 84.5432 80.1557 84.5432H75.2838L73.6782 87.4221H80.1557Z" fill="#404040"/>
<path d="M77 94.5087C77.7751 94.5087 78.4395 93.8443 78.4395 93.0692C78.4395 92.2941 77.7751 91.6298 77 91.6298H71.2422L69.6367 94.5087H77Z" fill="#404040"/>
<path d="M62.1073 92.6816C60.1696 92.6816 58.3426 93.6782 57.2353 95.2837L57.8443 96.3356C58.7301 97.9412 60.391 98.8823 62.218 98.8823C64.045 98.8823 65.6505 97.9412 66.5917 96.3356L67.09 95.4498C65.9827 93.7335 64.1557 92.6816 62.1073 92.6816Z" fill="#404040"/>
<path d="M79.3253 33C72.2941 33 66.3149 37.5952 64.1557 43.9619C63.5467 43.9066 62.8824 43.8512 62.218 43.8512C61.5536 43.8512 60.9446 43.9066 60.2803 43.9619C58.0657 37.5952 52.0865 33 45.1107 33C36.1972 33 29 40.308 29 49.3322C29 57.4152 34.8131 64.1142 42.3426 65.4429C42.564 68.2664 43.4498 71.0346 44.8893 73.5813L56.2941 93.6782C57.7336 91.9619 59.8374 90.9654 62.0519 90.9654C64.3772 90.9654 66.5363 92.0173 67.9758 93.7889L79.4914 73.526C80.9308 70.9792 81.8166 68.1557 82.0381 65.3875C89.6228 64.1142 95.436 57.4152 95.436 49.3322C95.436 40.308 88.2388 33 79.3253 33ZM45 53.7612C44.8339 54.0934 44.6678 54.3702 44.5017 54.7024C41.8443 54.4256 39.7958 52.1003 39.7958 49.3322C39.7958 46.3426 42.1765 43.9619 45.0554 43.9619C47.4914 43.9619 49.5398 45.6228 50.1488 47.8927C48.1557 49.4429 46.3841 51.436 45 53.7612ZM57.0692 76.0727C55.2976 76.0727 53.9135 74.6332 53.9135 72.8616C53.9135 71.09 55.3529 69.6505 57.0692 69.6505C58.8408 69.6505 60.2249 71.09 60.2249 72.8616C60.2249 74.6332 58.8408 76.0727 57.0692 76.0727ZM67.3668 76.0727C65.5952 76.0727 64.2111 74.6332 64.2111 72.8616C64.2111 71.09 65.6505 69.6505 67.3668 69.6505C69.1384 69.6505 70.5225 71.09 70.5225 72.8616C70.5225 74.6332 69.1384 76.0727 67.3668 76.0727ZM79.9343 54.7024C79.7682 54.3702 79.6021 54.0934 79.436 53.7612C78.0519 51.436 76.3356 49.4429 74.2872 47.8927C74.8962 45.6228 76.9446 43.9619 79.3806 43.9619C82.3149 43.9619 84.6401 46.3979 84.6401 49.3322C84.6401 52.1003 82.5917 54.3702 79.9343 54.7024Z" fill="#404040"/>
<path d="M18.5 19.5L94.5 113" stroke="#16A424" stroke-width="5"/>
</svg>
