<svg width="124" height="124" viewBox="0 0 124 124" fill="none" xmlns="http://www.w3.org/2000/svg">
<circle cx="62" cy="62" r="59.5" stroke="#16A424" stroke-width="5"/>
<path d="M62.3665 56.1666C67.7524 56.1666 72.1186 50.7946 72.1186 44.1679C72.1186 37.5412 67.7524 32.1692 62.3665 32.1692C56.9805 32.1692 52.6143 37.5412 52.6143 44.1679C52.6143 50.7946 56.9805 56.1666 62.3665 56.1666Z" fill="#404040"/>
<path d="M62.3665 104C69.8313 104 75.8828 94.3057 75.8828 82.3473C75.8828 70.3888 69.8313 60.6946 62.3665 60.6946C54.9016 60.6946 48.8502 70.3888 48.8502 82.3473C48.8502 94.3057 54.9016 104 62.3665 104Z" fill="#404040"/>
<path d="M52.0964 39.0588C52.5082 37.8562 53.0803 36.7147 53.7972 35.6651C52.3347 32.8227 50.2953 30.317 47.8094 28.3083C45.3235 26.2997 42.4459 24.8323 39.3607 24L41.0194 24.9239C45.9361 27.6629 49.6761 32.1129 51.5295 37.4289L52.0964 39.0588Z" fill="#404040"/>
<path d="M70.9357 35.6651C71.6526 36.7147 72.2247 37.8562 72.6365 39.0588L73.2046 37.4289C75.058 32.1129 78.798 27.6629 83.7147 24.9239L85.3734 24C82.288 24.8321 79.4101 26.2995 76.924 28.3081C74.4379 30.3168 72.3983 32.8226 70.9357 35.6651Z" fill="#404040"/>
<path d="M58.5977 31.5973V30.8758L60.7621 28.7534L58.5977 27.7141V24L57.3184 26.4136C55.9563 28.9849 55.0319 31.7652 54.5831 34.6404C55.6704 33.3315 57.044 32.2903 58.5977 31.5973Z" fill="#404040"/>
<path d="M66.1364 31.5973C67.6901 32.2903 69.0637 33.3315 70.151 34.6404C69.7022 31.7652 68.7778 28.9849 67.4157 26.4136L66.1364 24V27.7141L63.972 28.7534L66.1364 30.8758V31.5973Z" fill="#404040"/>
<path d="M62.3665 59.3301C64.8044 59.3301 67.1366 60.2144 69.2194 61.8746L68.2698 55.4836C66.5879 56.8105 64.5084 57.532 62.3665 57.532C60.2246 57.532 58.1451 56.8105 56.4631 55.4836L55.5135 61.8746C57.5965 60.2144 59.9285 59.3301 62.3665 59.3301Z" fill="#404040"/>
<path d="M55.2601 54.2565L45.6208 50.8315L45.1984 43.6483L37.2795 40.0565L42.3475 45.0214L42.7699 53.3668L54.6791 58.1681L55.2601 54.2565Z" fill="#404040"/>
<path d="M48.1281 75.5724L40.4474 77.5576L37.9135 86.9592L33.3732 92.5572L40.7642 88.6479L43.2451 81.0436L47.5457 80.1583C47.6373 78.6184 47.8319 77.0863 48.1281 75.5724Z" fill="#404040"/>
<path d="M51.646 66.3132C52.3583 65.161 53.1929 64.0892 54.1353 63.1164L42.2421 62.3458L38.2296 67.7333L32 71.0091L39.4966 70.0583L43.8259 65.9237L51.3015 66.8939C51.415 66.6984 51.5279 66.5031 51.646 66.3132Z" fill="#404040"/>
<path d="M69.4728 54.2565L79.1121 50.8315L79.5346 43.6483L87.4534 40.0565L82.3854 45.0214L81.963 53.3668L70.0539 58.1681L69.4728 54.2565Z" fill="#404040"/>
<path d="M76.6049 75.5724L84.286 77.5576L86.8199 86.9592L91.3602 92.5572L83.9693 88.6479L81.4879 81.0436L77.1873 80.1583C77.0956 78.6184 76.901 77.0863 76.6049 75.5724Z" fill="#404040"/>
<path d="M73.0869 66.3132C72.3747 65.161 71.5401 64.0892 70.5977 63.1164L82.4909 62.3458L86.5034 67.7333L92.7329 71.0091L85.2363 70.0583L80.907 65.9237L73.4314 66.8939C73.3179 66.6984 73.2051 66.5031 73.0869 66.3132Z" fill="#404040"/>
<path d="M18.5 19.5L94.5 113" stroke="#16A424" stroke-width="5"/>
</svg>
