<svg width="124" height="124" viewBox="0 0 124 124" fill="none" xmlns="http://www.w3.org/2000/svg">
<circle cx="62" cy="62" r="59.5" stroke="#16A424" stroke-width="5"/>
<path d="M42.2251 45.4425L42.4639 45.5022L42.5273 45.2644L42.9273 43.7644L42.9273 43.7644L42.9283 43.7606C42.9918 43.5066 42.9649 43.2587 42.8341 43.0533C42.7047 42.8498 42.4933 42.7192 42.2464 42.6574L42.2464 42.6572L42.2347 42.6548L40.2485 42.2576C39.8023 42.1202 39.2751 42.4162 39.1437 42.9373L38.7442 44.4356L38.677 44.6875L38.9315 44.744C40.2833 45.0444 40.9106 45.1699 41.3007 45.2454C41.3556 45.256 41.4056 45.2656 41.452 45.2746C41.735 45.3289 41.8881 45.3583 42.2251 45.4425Z" fill="#404040" stroke="#404040" stroke-width="0.5"/>
<path d="M36.4937 90.5386L36.4938 90.5387L36.4968 90.5338L44.2968 78.2338L44.3243 78.1906L44.3325 78.14L44.9325 74.44L44.9693 74.2131L44.7463 74.1574C43.5584 73.8604 42.3731 73.4651 41.2892 72.9724L41.0865 72.8802L40.9716 73.0709L32.1745 87.6662C31.5193 88.6541 31.6156 90.0895 32.5148 90.8826C33.0536 91.4183 33.8186 91.7554 34.6035 91.6499C35.399 91.6431 36.0628 91.185 36.4937 90.5386Z" fill="#404040" stroke="#404040" stroke-width="0.5"/>
<path d="M59.6456 43.3695L59.7275 43.6523L59.9932 43.5257C62.1668 42.4907 63.7223 40.4197 64.0337 38.0323L64.0705 37.75H63.7858H58.2858H57.9457L58.0471 38.0746C58.1599 38.4354 58.2472 38.7097 58.3274 38.9615C58.6029 39.8272 58.7942 40.4284 59.6456 43.3695Z" fill="#404040" stroke="#404040" stroke-width="0.5"/>
<path d="M56.8857 40.65H57.2903L57.1094 40.2882C57.1094 40.2883 57.1093 40.2881 57.1091 40.2877C57.108 40.285 57.1026 40.2725 57.0922 40.2445C57.0811 40.215 57.0671 40.1757 57.0503 40.1273C57.0169 40.0306 56.9741 39.9018 56.9251 39.7509C56.8272 39.4494 56.7057 39.0633 56.5873 38.6767C56.4688 38.2901 56.3537 37.9045 56.2685 37.6037C56.2257 37.4531 56.191 37.3254 56.1671 37.2302C56.1551 37.1823 56.1464 37.1448 56.1408 37.1176C56.1377 37.1027 56.1363 37.0942 56.1358 37.0907C56.1378 36.8522 56.2173 36.672 56.3375 36.5518C56.4593 36.43 56.6426 36.35 56.8857 36.35H60.3857H60.6357V36.1V34.5C60.6357 32.4666 59.0285 30.75 56.8857 30.75C54.8477 30.75 53.1357 32.4619 53.1357 34.5V36.9H53.1354L53.1361 36.9131C53.2422 38.929 54.8365 40.65 56.8857 40.65Z" fill="#404040" stroke="#404040" stroke-width="0.5"/>
<path d="M57.9625 73.2232L57.8207 73.0814L57.6515 73.1891C56.5817 73.8699 55.3116 74.3599 53.8367 74.6549L53.4026 74.7417L53.7011 75.0686L55.8011 77.3686L55.8009 77.3688L55.809 77.3768C55.8942 77.462 55.9482 77.5373 55.9823 77.6141C56.0159 77.6897 56.0357 77.7792 56.0357 77.9V91C56.0357 91.5684 56.2636 92.1314 56.709 92.5768C57.1544 93.0222 57.7174 93.25 58.2857 93.25C59.5238 93.25 60.5357 92.2381 60.5357 91V76.9C60.5357 76.2202 60.1987 75.566 59.781 75.0438L59.7723 75.033L59.7625 75.0232L57.9625 73.2232Z" fill="#404040" stroke="#404040" stroke-width="0.5"/>
<path d="M66.0755 61.1272C66.0656 61.1269 66.0558 61.1267 66.0459 61.1266C66.0223 60.1261 65.3706 59.2646 64.3786 58.8678L64.3786 58.8678L64.3739 58.866L58.2861 56.5706C58.0773 56.4659 57.9647 56.3989 57.9093 56.2881L57.9016 56.2726L57.8917 56.2583L57.8354 56.1764C56.7696 54.6264 56.098 53.6498 55.4217 51.7174L55.4213 51.7161C54.4913 49.1022 53.5302 47.281 52.5855 46.0769C51.6417 44.8739 50.697 44.266 49.7987 44.1278C48.8935 43.9886 48.089 44.3342 47.4507 44.9223C46.8154 45.5077 46.333 46.3418 46.0479 47.223L46.0446 47.233L46.0422 47.2432C44.4496 54.0823 44.217 55.1519 44.019 56.0628C44.0056 56.1243 43.9924 56.185 43.9789 56.2467C43.767 57.2193 43.4925 58.4421 41.5423 66.7428L41.5357 66.771V66.7999V69.5136C40.1045 68.8532 38.889 68.0734 38.0261 67.1993C37.1807 66.3429 36.6858 65.4095 36.6366 64.4142C36.6758 64.4238 36.7165 64.434 36.759 64.4445L36.7683 64.4468C36.9361 64.4886 37.1257 64.5356 37.3271 64.5788C37.7285 64.6648 38.1887 64.7382 38.6431 64.7248C39.0979 64.7115 39.5635 64.6107 39.9603 64.3329C40.3615 64.052 40.6662 63.6086 40.8282 62.9606L40.8283 62.9606L40.8291 62.9572C41.8665 58.5481 42.1777 57.2321 42.4741 55.9128C42.7492 54.6881 43.0115 53.4606 43.8298 49.7538L43.8302 49.7539L43.8323 49.741C44.0543 48.4093 43.2702 47.2911 42.0515 46.9588L42.0515 46.9586L42.0419 46.9563C41.23 46.769 41.0776 46.7368 40.4005 46.594C39.9928 46.508 39.3947 46.3819 38.3476 46.1575C37.1956 45.8188 35.8722 46.6233 35.5432 47.9393L35.5431 47.9393L35.542 47.9441L32.542 61.0441L32.5419 61.0441L32.5406 61.0509C32.4311 61.598 32.4833 62.1854 32.7672 62.6964C33.0272 63.1644 33.4706 63.5482 34.1162 63.7763C33.8282 67.1475 36.5785 69.7513 40.0098 71.4977C43.5314 73.2901 47.8951 74.2499 50.8857 74.2499C53.2338 74.2499 55.0174 73.9217 56.4656 73.3348C57.9157 72.747 59.0153 71.9055 60.0017 70.9C60.7817 70.1049 61.497 69.2002 62.2559 68.2402C62.4509 67.9937 62.6487 67.7435 62.8512 67.4906C63.825 66.2745 64.9196 64.9794 66.3577 63.672C66.3693 63.6745 66.3811 63.6772 66.3931 63.6798C68.4182 64.1283 75.188 65.6274 81.5766 68.7249L81.5846 68.7288L81.5929 68.7321C82.1883 68.9703 82.9341 68.7502 83.2053 68.1229C83.5886 67.575 83.2988 66.8219 82.6872 66.5713C79.473 65.0152 75.5135 63.5873 72.2337 62.5858C70.5921 62.0846 69.1169 61.689 67.987 61.4372C67.4225 61.3114 66.9404 61.2206 66.5651 61.1709C66.3776 61.146 66.2128 61.1308 66.0755 61.1272ZM47.1989 67.666L50.8229 71.7431C48.9685 71.6976 47.3652 71.4233 45.4684 70.9173L45.9325 68.0398L45.9328 68.0398L45.9342 68.0276C45.9715 67.6914 46.1876 67.4947 46.4463 67.43C46.7146 67.3629 47.0122 67.4423 47.1937 67.66L47.1936 67.6601L47.1989 67.666ZM50.8643 66.125L50.8625 66.1232C50.8026 66.0633 50.7435 65.9563 50.6997 65.8139C50.6596 65.6838 50.6385 65.5437 50.636 65.4238L52.2307 57.5496L52.2491 57.4589L52.2041 57.3782L49.3041 52.1782L49.3042 52.1781L49.3001 52.1713C49.0821 51.8081 49.2135 51.3548 49.6143 51.1143C49.9776 50.8964 50.4308 51.0277 50.6713 51.4286L50.6711 51.4287L50.6777 51.4386C50.7205 51.5029 51.0129 52.02 51.4394 52.7829C51.861 53.5372 52.4046 54.515 52.9421 55.4837C53.4795 56.4524 54.0107 57.4117 54.4076 58.1288L54.8861 58.9938L55.0197 59.2355L55.0549 59.2991L55.0639 59.3154L55.0661 59.3195L55.0667 59.3205L55.0669 59.3208L55.2857 59.1999L55.0669 59.3209L55.1139 59.4058L55.2059 59.4369L64.0241 62.4082C63.0295 63.4058 62.7713 63.6994 59.668 67.2278C58.997 67.9907 58.1931 68.9048 57.2199 70.0099C56.6904 70.3602 56.1578 70.633 55.544 70.9022L50.8643 66.125Z" fill="#404040" stroke="#404040" stroke-width="0.5"/>
<path d="M88.0624 71.7232C87.5648 71.2256 86.8065 71.2256 86.3089 71.7232C85.8113 72.2208 85.8113 72.9791 86.3089 73.4767L88.8089 75.9768C89.3065 76.4744 90.0648 76.4744 90.5624 75.9768C91.0601 75.4791 91.0601 74.7208 90.5624 74.2232L88.0624 71.7232Z" fill="#404040" stroke="#404040" stroke-width="0.5"/>
<path d="M85.5232 76.6208L84.5289 73.0413C84.4607 72.7164 84.2378 72.4403 83.9661 72.2742C83.6961 72.1092 83.3473 72.0353 83.0143 72.1596C82.6949 72.2309 82.4238 72.4514 82.2599 72.7196C82.0936 72.9918 82.0198 73.3438 82.1482 73.6792L83.1426 77.2587C83.2127 77.5922 83.444 77.8434 83.7143 77.9935C83.9867 78.1449 84.3217 78.2078 84.6348 78.1452C84.9639 78.0793 85.2438 77.8548 85.4115 77.5804C85.5778 77.3083 85.6516 76.9562 85.5232 76.6208Z" fill="#404040" stroke="#404040" stroke-width="0.5"/>
<path d="M88.3526 67.4591L88.3437 67.4566L88.3347 67.4548C88.0217 67.3922 87.6866 67.4551 87.4143 67.6064C87.1414 67.758 86.9082 68.0126 86.8405 68.3509C86.7779 68.664 86.8408 68.999 86.9921 69.2714C87.1423 69.5416 87.3935 69.773 87.727 69.8431L91.3188 70.8408L91.3276 70.8433L91.3367 70.8451C91.6497 70.9077 91.9848 70.8448 92.2571 70.6935C92.53 70.5419 92.7632 70.2873 92.8308 69.949C92.8934 69.6359 92.8305 69.3009 92.6792 69.0285C92.5291 68.7583 92.2779 68.5269 91.9444 68.4568L88.3526 67.4591Z" fill="#404040" stroke="#404040" stroke-width="0.5"/>
</svg>
